# xmcd
# Track frame offsets:
# 150
# 11825
# 27120
# 40772
# 55925
# 69462
# 87925
# 103697
# 118167
# 137675
# 152147
# 170537
# 188750
# 201495
# 219347
# 229625
# 242062
# 255347
# 268250
# 285762
#
# Disc length: 4016 seconds
# Revision: 2
# Processed by: cddbd v1.5.2PL0 Copyright (c) Steve Scherf et al.
# Submitted via: VisiTrax 2.11.3.279 - For more info visit www.synapsa.com
#
DISCID=160fae14
DTITLE=Gone country - Gone country - 20 country hits
DYEAR=1995
DGENRE=
TTITLE0=Mark Chesnutt - Goin' Through The Big D
TTITLE1=Blackhawk - Goodbye Says It All
TTITLE2=Brooks and Dunn - Little Miss Honky Tonk
TTITLE3=Trisha Yearwood - Thinkin' About You
TTITLE4=David Lee Murphy - Just Once
TTITLE5=Tracy Byrd - The Keeper Of The Stars
TTITLE6=Radney Foster - Nobody Wins
TTITLE7=Helen Darling - Jenny Come Back
TTITLE8=Alan Jackson - Gone Country
TTITLE9=The Mavericks - O What A Thrill
TTITLE10=John Anderson - Bend It Until It Breaks
TTITLE11=Reba McEntire - Read My Mind
TTITLE12=George Jones and Marty Stuart - One Man Woman
TTITLE13=Vince Gill - I Still Believe In You
TTITLE14=George Strait - Heartland
TTITLE15=Linda Davis - Love Didn't Do It
TTITLE16=Clint Black - Life Gets Away
TTITLE17=Pam Tillis - Mi Vida Loca
TTITLE18=The Tractors - The Tulsa Shuffle
TTITLE19=Martina McBride - Independence Day
EXTD=
EXTT0=
EXTT1=
EXTT2=
EXTT3=
EXTT4=
EXTT5=
EXTT6=
EXTT7=
EXTT8=
EXTT9=
EXTT10=
EXTT11=
EXTT12=
EXTT13=
EXTT14=
EXTT15=
EXTT16=
EXTT17=
EXTT18=
EXTT19=
PLAYORDER=
